<svg xmlns="http://www.w3.org/2000/svg" version="1.1" xmlns:xlink="http://www.w3.org/1999/xlink" xmlns:svgjs="http://svgjs.com/svgjs" width="3840" height="2160" preserveAspectRatio="none" viewBox="0 0 3840 2160">
    <g mask="url(&quot;#SvgjsMask1007&quot;)" fill="none">
        <rect width="3840" height="2160" x="0" y="0" fill="#3D3B8E"></rect>
        <path d="M3499.52 594.31a43.76 43.76 0 1 0-70.51 51.84z" fill="#e73635"></path>
        <path d="M1232.43 1108.99a174.44 174.44 0 1 0 141.4 318.94z" fill="#037b0b"></path>
        <path d="M3805.91 1562.71L3868.28 1562.71L3868.28 1640.33L3805.91 1640.33z" stroke="#037b0b"></path>
        <path d="M3702.93 1589.51L3868.45 1589.51L3868.45 1802.48L3702.93 1802.48z" stroke="#037b0b"></path>
        <path d="M1934.03 1288.67 a133.48 133.48 0 1 0 266.96 0 a133.48 133.48 0 1 0 -266.96 0z" fill="#d3b714"></path>
        <path d="M2607.85 626 a215.15 215.15 0 1 0 430.3 0 a215.15 215.15 0 1 0 -430.3 0z" stroke="#037b0b"></path>
        <path d="M2711.95 1639.46 a76.45 76.45 0 1 0 152.9 0 a76.45 76.45 0 1 0 -152.9 0z" stroke="#e73635"></path>
        <path d="M3828.72 270.62a203.97 203.97 0 1 0-165.75-372.75z" fill="#e73635"></path>
        <path d="M909.21 1537L948.29 1537L948.29 1576.08L909.21 1576.08z" fill="#037b0b"></path>
        <path d="M3097.16 565.21L3141.06 565.21L3141.06 571.72L3097.16 571.72z" fill="#d3b714"></path>
        <path d="M573.72 1567.57L584.53 1567.57L584.53 1600.16L573.72 1600.16z" stroke="#e73635"></path>
        <path d="M1733.45 2118.45a79.55 79.55 0 1 0 157.3-23.84z" fill="#e73635"></path>
        <path d="M2995.33 695.84 a52.12 52.12 0 1 0 104.24 0 a52.12 52.12 0 1 0 -104.24 0z" stroke="#d3b714"></path>
        <path d="M1515.31 825.26 a174.01 174.01 0 1 0 348.02 0 a174.01 174.01 0 1 0 -348.02 0z" fill="#e73635"></path>
        <path d="M1023.97 650.68L1217.72 650.68L1217.72 844.43L1023.97 844.43z" stroke="#d3b714"></path>
        <path d="M3359.72 241.71a21.21 21.21 0 1 0 34.64-24.48z" fill="#037b0b"></path>
        <path d="M688.22 1494.22L689.69 1494.22L689.69 1588.18L688.22 1588.18z" fill="#e73635"></path>
        <path d="M2866.71 1692.43 a150.3 150.3 0 1 0 300.6 0 a150.3 150.3 0 1 0 -300.6 0z" stroke="#e73635"></path>
        <path d="M1321.36 801.59L1484.76 801.59L1484.76 964.99L1321.36 964.99z" fill="#037b0b"></path>
        <path d="M567.14 1471.48L641.54 1471.48L641.54 1545.88L567.14 1545.88z" fill="#e73635"></path>
        <path d="M1521.71 1208.23L1695.52 1208.23L1695.52 1382.04L1521.71 1382.04z" stroke="#e73635"></path>
        <path d="M3250.08 158.72L3336.69 158.72L3336.69 180.42L3250.08 180.42z" fill="#037b0b"></path>
        <path d="M17.26 917.64L150.75 917.64L150.75 1051.13L17.26 1051.13z" fill="#d3b714"></path>
    </g>
    <defs>
        <mask id="SvgjsMask1007">
            <rect width="3840" height="2160" fill="#ffffff"></rect>
        </mask>
    </defs>
</svg>